<svg xmlns="http://www.w3.org/2000/svg" width="476" height="880" viewBox="0 0 476 880">
  <path d="M 124.0 879.0 L 124.0 846.0 L 128.0 815.0 L 136.0 784.0 L 150.0 752.0 L 166.0 718.0 L 180.0 686.0 L 190.0 651.0 L 200.0 616.0 L 207.0 581.0 L 207.0 545.0 L 207.0 510.0 L 213.0 480.0 L 222.0 452.0 L 236.0 423.0 L 251.0 395.0 L 266.0 367.0 L 284.0 339.0 L 302.0 310.0 L 322.0 289.0 L 352.0 277.0 L 382.0 270.0 L 408.0 252.0 L 425.0 236.0 L 421.0 211.0 L 394.0 188.0 L 360.0 163.0 L 324.0 137.0 L 288.0 107.0 L 253.0 75.0" fill="none" stroke="#644c18" stroke-width="10" stroke-linecap="round" stroke-linejoin="round" opacity="0.9" />
  <path d="M 124.0 879.0 L 124.0 846.0 L 128.0 815.0 L 136.0 784.0 L 150.0 752.0 L 166.0 718.0 L 180.0 686.0 L 190.0 651.0 L 200.0 616.0 L 207.0 581.0 L 207.0 545.0 L 207.0 510.0 L 213.0 480.0 L 222.0 452.0 L 236.0 423.0 L 251.0 395.0 L 266.0 367.0 L 284.0 339.0 L 302.0 310.0 L 322.0 289.0 L 352.0 277.0 L 382.0 270.0 L 408.0 252.0 L 425.0 236.0 L 421.0 211.0 L 394.0 188.0 L 360.0 163.0 L 324.0 137.0 L 288.0 107.0 L 253.0 75.0" fill="none" stroke="#a77c1d" stroke-width="6" stroke-linecap="round" stroke-linejoin="round" />
  <rect x="120" y="839" width="12" height="12" fill="#f4e718" stroke="#847709" stroke-width="1" />
  <rect x="128" y="777" width="12" height="12" fill="#f4e718" stroke="#847709" stroke-width="1" />
  <rect x="157" y="712" width="12" height="12" fill="#f4e718" stroke="#847709" stroke-width="1" />
  <rect x="181" y="645" width="12" height="12" fill="#f4e718" stroke="#847709" stroke-width="1" />
  <rect x="198" y="577" width="12" height="12" fill="#f4e718" stroke="#847709" stroke-width="1" />
  <rect x="203" y="504" width="12" height="12" fill="#f4e718" stroke="#847709" stroke-width="1" />
  <rect x="214" y="451" width="12" height="12" fill="#f4e718" stroke="#847709" stroke-width="1" />
  <rect x="238" y="393" width="12" height="12" fill="#f4e718" stroke="#847709" stroke-width="1" />
  <rect x="263" y="348" width="12" height="12" fill="#f4e718" stroke="#847709" stroke-width="1" />
  <rect x="286" y="308" width="12" height="12" fill="#f4e718" stroke="#847709" stroke-width="1" />
  <rect x="314" y="284" width="12" height="12" fill="#f4e718" stroke="#847709" stroke-width="1" />
  <rect x="373" y="264" width="12" height="12" fill="#f4e718" stroke="#847709" stroke-width="1" />
  <rect x="414" y="232" width="12" height="12" fill="#f4e718" stroke="#847709" stroke-width="1" />
  <rect x="383" y="180" width="12" height="12" fill="#f4e718" stroke="#847709" stroke-width="1" />
  <rect x="336" y="147" width="12" height="12" fill="#f4e718" stroke="#847709" stroke-width="1" />
  <rect x="280" y="102" width="12" height="12" fill="#f4e718" stroke="#847709" stroke-width="1" />
  <circle cx="253" cy="75" r="7" fill="#000000" />
  <text x="150" y="468" transform="rotate(-90 150 468)" fill="#825217" opacity="0.92" font-family="Arial, sans-serif" font-size="24" font-weight="700">Kinglets Caper Trail</text>
</svg>
