<svg xmlns="http://www.w3.org/2000/svg" viewBox="0 0 1600 1000" role="img" aria-labelledby="title desc">
  <title id="title">famous.land</title>
  <desc id="desc">A spare graphic mark for famous.land.</desc>
  <defs>
    <linearGradient id="field" x1="0" x2="1" y1="0" y2="1">
      <stop offset="0" stop-color="#f2dfbf"/>
      <stop offset="0.48" stop-color="#d25534"/>
      <stop offset="1" stop-color="#1e776c"/>
    </linearGradient>
    <linearGradient id="shade" x1="0" x2="0" y1="0" y2="1">
      <stop offset="0" stop-color="#ffffff" stop-opacity="0.52"/>
      <stop offset="1" stop-color="#ffffff" stop-opacity="0"/>
    </linearGradient>
    <filter id="soft-shadow" x="-20%" y="-20%" width="140%" height="140%">
      <feDropShadow dx="0" dy="30" stdDeviation="34" flood-color="#000000" flood-opacity="0.42"/>
    </filter>
  </defs>
  <rect width="1600" height="1000" rx="42" fill="#11110f"/>
  <g filter="url(#soft-shadow)">
    <path d="M205 704 C354 463 487 333 650 332 C822 331 892 474 1040 474 C1173 474 1259 383 1398 276 L1398 768 L205 768 Z" fill="url(#field)"/>
    <path d="M205 704 C354 463 487 333 650 332 C822 331 892 474 1040 474 C1173 474 1259 383 1398 276 L1398 420 C1254 514 1173 592 1036 592 C880 592 812 455 647 456 C492 457 357 576 205 818 Z" fill="#f8eee0" opacity="0.22"/>
    <path d="M205 704 C354 463 487 333 650 332 C822 331 892 474 1040 474 C1173 474 1259 383 1398 276" fill="none" stroke="#fff4de" stroke-width="18" stroke-linecap="round" opacity="0.84"/>
    <path d="M204 768 L1398 768" stroke="#fff4de" stroke-width="18" stroke-linecap="round" opacity="0.84"/>
  </g>
  <circle cx="1220" cy="246" r="74" fill="#f1c85b"/>
  <circle cx="1220" cy="246" r="106" fill="none" stroke="#f1c85b" stroke-width="8" opacity="0.26"/>
  <rect x="330" y="628" width="940" height="132" rx="66" fill="#12110f" opacity="0.78"/>
  <text x="800" y="719" text-anchor="middle" fill="#fff7e8" font-family="Inter, Avenir Next, Helvetica, Arial, sans-serif" font-size="86" font-weight="750" letter-spacing="0">famous.land</text>
  <path d="M320 806 L1280 806" stroke="url(#shade)" stroke-width="2" opacity="0.5"/>
</svg>
